<svg width="1528" height="1213" viewBox="0 0 1528 1213" fill="none" xmlns="http://www.w3.org/2000/svg">
<path d="M839.5 983C781.5 1257.8 988.667 1226.83 1099.5 1177C1242 1143.93 1290 816.5 1390.5 740C1491 663.5 1557 580.5 1508.5 445.5C1460 310.5 1349 418 1127 504.5C905 591 912 639.5 839.5 983Z" stroke="#2C2586" stroke-width="5"/>
<path d="M32.5 275C39.7 393 109.833 430.833 144 435C204 435 219.5 435 186.5 359.5C153.5 284 177 275 243.5 130.5C310 -14 222.5 -32 84 58.5C-54.5 149 23.5 127.5 32.5 275Z" stroke="#2C2586" stroke-width="5"/>
</svg>
